<svg width="36" height="37" viewBox="0 0 36 37" fill="none" xmlns="http://www.w3.org/2000/svg">
<g clip-path="url(#clip0_11_321)">
<path d="M13.575 8.29353C12.8963 7.61434 12.6316 6.94953 12.6316 5.92108H11.5264C11.5264 7.24353 11.9055 8.18687 12.7936 9.07495L13.575 8.29353Z" fill="#8B8B8B"/>
<path d="M32.5264 3.71053H18.0402C17.6783 2.43671 16.5067 1.5 15.1185 1.5H11.7259C9.66787 1.5 7.80605 2.34774 6.46592 3.71053H3.78953C2.26592 3.71053 1.02637 4.95008 1.02637 6.47368V27.4737C1.02637 28.9973 2.26592 30.2368 3.78953 30.2368H12.6316V32.4474H10.9737C10.0597 32.4474 9.31584 33.1912 9.31584 34.1053V35.7632H27V34.1053C27 33.1912 26.2562 32.4474 25.3422 32.4474H23.6843V30.2368H32.5264C34.05 30.2368 35.2895 28.9973 35.2895 27.4737V6.47368C35.2895 4.95008 34.05 3.71053 32.5264 3.71053ZM18.1441 4.81579H32.5264C33.4404 4.81579 34.1843 5.55963 34.1843 6.47368V24.7105H22.29L24.2087 19.9115L24.5613 18.8537C24.6359 18.6294 24.6917 18.4006 24.7298 18.1685C25.3377 18.3846 25.9235 18.6576 26.485 18.9764C26.6442 19.7258 27.3095 20.2895 28.1053 20.2895C29.0194 20.2895 29.7632 19.5456 29.7632 18.6316V10.8947C29.7632 9.98068 29.0194 9.23684 28.1053 9.23684C27.3101 9.23684 26.6447 9.80053 26.485 10.5488C24.8183 11.4954 22.9338 12 21.0145 12H19.2632C18.3492 12 17.6053 12.7438 17.6053 13.6579V15.8684C17.6053 16.7825 18.3492 17.5263 19.2632 17.5263H19.5666C19.3759 17.8363 19.2632 18.1967 19.2632 18.5791C19.2632 19.1168 19.4727 19.6224 19.8529 20.0027L20.185 20.3353L16.7819 24.7105H16.4503C16.2094 22.2684 15.0135 20.0397 13.1843 18.4796V15.8463C13.7485 15.7938 14.2746 15.5601 14.6802 15.1539C15.1411 14.6935 15.3948 14.0812 15.3948 13.4291V12.3984L17.0527 11.8458V11.4474C17.0527 10.3045 16.3873 8.7671 15.8297 7.67897C15.8004 7.62205 15.7651 7.57011 15.7319 7.5165C17.0267 7.25013 18.0226 6.15758 18.1441 4.81579ZM20.6343 19.2212C20.463 19.0499 20.3685 18.8217 20.3685 18.5791C20.3685 18.1983 20.6067 17.8645 20.9609 17.7319C21.0499 18.2127 21.3433 18.631 21.7932 18.8565L22.332 19.1256L22.8266 18.137L22.2878 17.8678C22.1264 17.7877 22.0264 17.6258 22.0264 17.4456C22.0264 17.1853 22.238 16.9737 22.4983 16.9737H23.2123C23.4726 16.9737 23.6843 17.1853 23.6843 17.4456C23.6843 17.8059 23.6268 18.1624 23.5124 18.505L23.1709 19.5318L21.0996 24.7105H18.1828L21.6567 20.2436L20.6343 19.2212ZM18.7106 15.3158H19.8158V14.2105H18.7106V13.6579C18.7106 13.3534 18.9587 13.1053 19.2632 13.1053H20.9211V16.4211H19.2632C18.9587 16.4211 18.7106 16.1729 18.7106 15.8684V15.3158ZM26.4474 17.7037C25.8904 17.4263 25.3123 17.1936 24.7188 17.0041C24.5265 16.3503 23.928 15.8684 23.2123 15.8684H22.4983C22.3331 15.8684 22.1761 15.901 22.0264 15.9486V13.0583C23.5649 12.9301 25.0647 12.5117 26.4474 11.8232V17.7037ZM27.5527 18.6316V10.8947C27.5527 10.5902 27.8008 10.3421 28.1053 10.3421C28.4098 10.3421 28.6579 10.5902 28.6579 10.8947V18.6316C28.6579 18.9361 28.4098 19.1842 28.1053 19.1842C27.8008 19.1842 27.5527 18.9361 27.5527 18.6316ZM7.65795 20.2895V24.7105H5.44742V22.6359C5.44742 20.2668 7.01302 18.2033 9.27716 17.5562L10.2934 17.9795C13.0776 19.1394 15.0096 21.7412 15.3428 24.7105H8.76321V20.2895H7.65795ZM11.7259 2.60526H15.1185C16.1851 2.60526 17.0527 3.47289 17.0527 4.53947C17.0527 5.60605 16.1851 6.47368 15.1185 6.47368H13.8601H13.7369V7.57895H13.8601C14.2774 7.57895 14.6548 7.8105 14.846 8.18297C15.4401 9.34184 15.8109 10.3421 15.9165 11.0594L14.2895 11.6021V13.4297C14.2895 13.7861 14.1508 14.121 13.8983 14.3736C13.6468 14.625 13.3119 14.7632 12.956 14.7632H10.9737V15.8684H12.079V17.6683C11.6485 17.3987 11.1964 17.1588 10.719 16.9599L9.86847 16.6056V12.3238L8.92513 11.3805C8.82068 11.2761 8.76321 11.1368 8.76321 10.9892V10.8947C8.76321 10.5902 9.01134 10.3421 9.31584 10.3421H9.86847V8.68421C9.86847 8.07466 10.3642 7.57895 10.9737 7.57895V6.47368C9.75463 6.47368 8.76321 7.46511 8.76321 8.68421V9.33134C8.11995 9.55958 7.65795 10.1741 7.65795 10.8947V10.9892C7.65795 11.4319 7.83037 11.8486 8.14371 12.1619L8.76321 12.7814V14.4078C6.71681 13.3114 5.44742 11.2164 5.44742 8.88371C5.44742 5.42203 8.26418 2.60526 11.7259 2.60526ZM3.78953 4.81579H5.5701C4.79587 5.9835 4.34216 7.3811 4.34216 8.88371C4.34216 11.6988 5.9061 14.2293 8.42389 15.4882L8.76321 15.6579V16.5614C6.14042 17.4092 4.34216 19.8457 4.34216 22.6365V24.7105H2.13163V6.47368C2.13163 5.55963 2.87547 4.81579 3.78953 4.81579ZM25.8948 34.1053V34.6579H10.4211V34.1053C10.4211 33.8002 10.6692 33.5526 10.9737 33.5526H25.3422C25.6467 33.5526 25.8948 33.8002 25.8948 34.1053ZM22.579 32.4474H13.7369V30.2368H22.579V32.4474ZM32.5264 29.1316H3.78953C2.87547 29.1316 2.13163 28.3877 2.13163 27.4737V25.8158H34.1843V27.4737C34.1843 28.3877 33.4404 29.1316 32.5264 29.1316Z" fill="#8B8B8B"/>
<path d="M7.65796 26.921H8.76322V28.0263H7.65796V26.921Z" fill="#8B8B8B"/>
<path d="M3.23682 26.921H4.34208V28.0263H3.23682V26.921Z" fill="#8B8B8B"/>
<path d="M5.44751 26.921H6.55277V28.0263H5.44751V26.921Z" fill="#8B8B8B"/>
<path d="M30.8684 14.2105H33.0789V15.3158H30.8684V14.2105Z" fill="#8B8B8B"/>
<path d="M30.606 12.6126L32.8154 11.5079L33.3094 12.496L31.1 13.6007L30.606 12.6126Z" fill="#8B8B8B"/>
<path d="M30.6082 16.9254L31.1022 15.9372L33.3116 17.042L32.8176 18.0301L30.6082 16.9254Z" fill="#8B8B8B"/>
</g>
<defs>
<clipPath id="clip0_11_321">
<rect width="35.3684" height="35.3684" fill="white" transform="translate(0.473633 0.947388)"/>
</clipPath>
</defs>
</svg>
