<svg width="36" height="36" viewBox="0 0 36 36" fill="none" xmlns="http://www.w3.org/2000/svg">
<g clip-path="url(#clip0_11_310)">
<path d="M8.08037 6.52597C8.3665 6.52597 8.59846 6.294 8.59846 6.00788C8.59846 5.72175 8.3665 5.48978 8.08037 5.48978C7.79425 5.48978 7.56228 5.72175 7.56228 6.00788C7.56228 6.294 7.79418 6.52597 8.08037 6.52597ZM3.93563 6.52597C4.22176 6.52597 4.45373 6.294 4.45373 6.00788C4.45373 5.72175 4.22176 5.48978 3.93563 5.48978C3.64951 5.48978 3.41754 5.72175 3.41754 6.00788C3.41754 6.294 3.64944 6.52597 3.93563 6.52597ZM6.008 6.52597C6.29413 6.52597 6.52609 6.294 6.52609 6.00788C6.52609 5.72175 6.29413 5.48978 6.008 5.48978C5.72188 5.48978 5.48991 5.72175 5.48991 6.00788C5.48991 6.294 5.72181 6.52597 6.008 6.52597ZM5.89437 12.0145C5.89755 12.0146 5.90072 12.0146 5.9039 12.0146L10.5881 12.0157H10.5884C10.912 12.0157 11.1867 11.8061 11.2722 11.494C11.3577 11.1818 11.2279 10.8613 10.9494 10.6965L10.2369 10.275C11.382 9.14012 12.026 7.59165 12.0158 5.96926C11.9953 2.72476 9.33975 0.0473308 6.09622 0.000633401C2.73518 -0.0476528 0 2.67109 0 6.00801C0 9.20796 2.63661 11.9452 5.89437 12.0145ZM2.51793 2.46703C3.47329 1.52534 4.73605 1.01796 6.08137 1.03668C8.76529 1.07529 10.9626 3.29093 10.9796 5.97575C10.9888 7.42427 10.3676 8.80177 9.27537 9.75493C9.09272 9.91422 8.99705 10.1533 9.01915 10.3945C9.04126 10.6355 9.17893 10.8529 9.38721 10.9761L9.39239 10.9791L5.90901 10.9783C3.21618 10.9266 1.03618 8.70824 1.03618 6.00801C1.03618 4.66643 1.56243 3.40892 2.51793 2.46703ZM34.8503 34.3322H34.3322V26.6168C34.3322 24.5954 33.1378 22.7599 31.2834 21.9379L28.553 20.7676C29.2174 20.558 29.8176 20.1841 30.306 19.6655C31.0429 18.8832 31.4655 17.8217 31.4655 16.7531C31.4655 15.7712 31.1224 14.8445 30.4733 14.0728C29.6613 13.1086 29.2142 11.8833 29.2142 10.6223V8.13965C29.2142 5.96519 28.3673 3.92128 26.8298 2.38448C25.2922 0.846781 23.2481 1.16902e-05 21.0739 1.16902e-05C16.5857 1.16902e-05 12.9343 3.65139 12.9343 8.13958V10.5415C12.9346 11.8462 12.4218 13.0916 11.5886 14.0956C10.5399 15.359 10.3221 17.0673 11.0201 18.5536C11.5382 19.657 12.4727 20.4497 13.5914 20.7852L10.8801 21.9642C8.97785 22.7647 7.74865 24.6154 7.74865 26.6791V32.778C7.74865 33.0642 7.98055 33.2961 8.26675 33.2961C8.55294 33.2961 8.78484 33.0642 8.78484 32.778V26.6791C8.78484 25.0335 9.765 23.5576 11.2876 22.9169L14.6862 21.439V24.5576H13.1248C12.6848 24.5576 12.2636 24.7452 11.9692 25.0724C11.675 25.3995 11.5328 25.8381 11.5792 26.2756L12.4332 34.3322H0.518092C0.231898 34.3322 0 34.5642 0 34.8503C0 35.1365 0.231898 35.3684 0.518092 35.3684H34.8503C35.1365 35.3684 35.3684 35.1365 35.3684 34.8503C35.3684 34.5642 35.1365 34.3322 34.8503 34.3322ZM29.6805 14.7399C30.1704 15.3223 30.4293 16.0184 30.4293 16.753C30.4293 17.5604 30.1094 18.3629 29.5518 18.9551C28.9613 19.582 28.1501 19.9272 27.2676 19.9272H26.5924L25.7055 19.5471C24.9308 19.2148 24.4008 18.5025 24.2925 17.6826C25.8911 16.8219 26.9802 15.1327 26.9802 13.1934V9.29852C27.1319 9.30881 27.2833 9.31441 27.4344 9.31441C27.6836 9.31441 27.9318 9.30025 28.1781 9.27234V10.6223C28.178 12.1271 28.7117 13.5895 29.6805 14.7399ZM21.1998 22.919C19.3464 22.9518 17.5069 22.7169 15.7224 22.2219V20.9884L15.8722 20.9233C15.8734 20.9228 15.8745 20.9222 15.8758 20.9217L16.8001 20.5198C17.8289 20.0726 18.556 19.1564 18.7764 18.0858C19.2276 18.217 19.7037 18.2887 20.1967 18.2887H21.8849C22.3797 18.2887 22.8577 18.2165 23.3103 18.0843C23.538 19.15 24.2678 20.0579 25.2972 20.4995L26.2836 20.9222C26.2843 20.9225 26.2849 20.9228 26.2855 20.923L26.3586 20.9543V22.1201C24.6818 22.6197 22.9484 22.8884 21.1998 22.919ZM26.3585 23.1989V24.5576H15.7224V23.2949C17.402 23.7353 19.1264 23.9581 20.8626 23.9581C20.981 23.9581 21.0995 23.9571 21.2179 23.955C22.958 23.9246 24.6839 23.6703 26.3585 23.1989ZM28.178 8.22759C26.7509 8.42039 25.1423 8.03811 24.0339 7.17939C23.8079 7.0042 23.4824 7.04537 23.3071 7.27161C23.1318 7.49777 23.1732 7.8232 23.3993 7.99846C24.1239 8.55979 24.9978 8.9552 25.944 9.15456V11.9751C25.6951 12.5425 25.4179 13.0144 24.7931 13.5299C24.5301 13.7469 24.2422 13.9272 23.9338 14.0701C23.682 13.5788 23.1706 13.2415 22.5816 13.2415H21.3675C20.5301 13.2415 19.8488 13.9229 19.8488 14.7602C19.8488 15.5976 20.5301 16.2789 21.3675 16.2789H22.5816C23.2864 16.2789 23.8805 15.7964 24.051 15.1444C24.7441 14.8803 25.8741 13.9382 25.8744 13.9379C25.5236 15.8214 23.8687 17.2523 21.885 17.2523H20.1966C17.9585 17.2523 16.1375 15.4314 16.1375 13.1932V9.18841C17.8972 8.91258 19.5596 8.31712 21.0841 7.41536C23.4055 6.04228 24.8945 4.24802 25.793 2.83045C27.3305 4.1998 28.2051 6.16296 28.178 8.22759ZM23.064 14.7617C23.0632 15.0272 22.8472 15.2429 22.5816 15.2429H21.3674C21.1013 15.2429 20.8849 15.0264 20.8849 14.7604C20.8849 14.4944 21.1014 14.2779 21.3674 14.2779H22.5816C22.8471 14.2779 23.0631 14.4935 23.064 14.7588V14.7617ZM13.9705 8.13958C13.9705 4.22274 17.1571 1.0362 21.0739 1.0362C22.4786 1.0362 23.821 1.44169 24.968 2.19658C24.1411 3.52214 22.7492 5.22673 20.5566 6.52376C19.0524 7.4135 17.4024 7.98153 15.6524 8.21212H15.6201C15.6199 8.21212 15.6196 8.21212 15.6194 8.21212C15.6191 8.21212 15.619 8.21212 15.6187 8.21212H13.9705V8.13958H13.9705ZM11.9579 18.1132C11.4326 16.9943 11.5966 15.7084 12.3853 14.7581C13.375 13.5657 13.9716 12.0924 13.9705 10.5415V9.2483H15.1013V13.1934C15.1013 15.1338 16.1919 16.8238 17.7919 17.6841C17.6918 18.5102 17.1634 19.2319 16.3868 19.5695L15.5642 19.9272H14.8133C13.5775 19.9272 12.4834 19.2321 11.9579 18.1132ZM29.9935 26.1665L29.1279 34.3322H13.4752L12.6096 26.1665C12.5939 26.0185 12.6401 25.876 12.7396 25.7654C12.8392 25.6548 12.976 25.5938 13.1248 25.5938H29.4783C29.6271 25.5938 29.764 25.6548 29.8635 25.7654C29.9631 25.876 30.0092 26.0185 29.9935 26.1665ZM33.2961 34.3322H30.1699L31.0239 26.2758C31.0703 25.8382 30.9281 25.3996 30.6339 25.0724C30.3395 24.7453 29.9184 24.5576 29.4783 24.5576H27.3946V21.3985L30.8694 22.8877C32.3435 23.5412 33.2961 25.0049 33.2961 26.6168V34.3322ZM21.3015 27.9943C20.216 27.9943 19.3328 28.8774 19.3328 29.963C19.3328 31.0486 20.216 31.9318 21.3015 31.9318C22.3871 31.9318 23.2703 31.0486 23.2703 29.963C23.2703 28.8774 22.3871 27.9943 21.3015 27.9943ZM21.3015 30.8956C20.7873 30.8956 20.369 30.4772 20.369 29.963C20.369 29.4488 20.7873 29.0304 21.3015 29.0304C21.8158 29.0304 22.2341 29.4488 22.2341 29.963C22.2341 30.4772 21.8158 30.8956 21.3015 30.8956Z" fill="#8B8B8B"/>
</g>
<defs>
<clipPath id="clip0_11_310">
<rect width="35.3684" height="35.3684" fill="white"/>
</clipPath>
</defs>
</svg>
