<svg width="190" height="66" viewBox="0 0 190 66" fill="none" xmlns="http://www.w3.org/2000/svg">
<path fill-rule="evenodd" clip-rule="evenodd" d="M94.6614 6.02456L95.7436 1.03125L96.4189 6.02456L97.9058 1.4355L97.7716 6.29475L100.204 1.84181L99.2586 6.83512L102.367 2.78644L100.88 7.64569L104.258 4.00125L102.23 8.59031L106.016 5.07994L103.313 9.53494L107.503 6.83512L104.258 10.7498L109.124 8.59031L105.341 11.9646L110.07 10.6157L106.016 13.5836L111.016 12.639L106.557 15.0686L111.557 14.6644L106.691 16.5536L111.828 17.094L106.826 18.1748L111.828 19.1194L106.691 19.6577L111.557 21.549L106.557 21.4129L111.016 23.5723L106.016 22.7638L110.07 25.7317L105.341 24.3829L109.124 27.7571L104.258 25.4636L107.503 29.2421L103.313 26.6784L106.016 30.9973L102.23 27.7571L104.258 32.3462L100.88 28.7018L102.367 33.4269L99.2586 29.2421L100.204 34.2375L97.7716 29.9166L97.9058 34.9119L96.4189 30.3229L95.7436 35.3162L94.6614 30.3229L93.7155 35.3162L93.1744 30.3229L91.419 34.9119L91.5532 29.9166L89.2567 34.2375L90.0663 29.2421L87.0924 33.4269L88.5793 28.7018L85.0664 32.3462L87.0924 27.7571L83.3089 30.9973L86.1465 26.6784L81.6877 29.2421L85.0664 25.4636L80.335 27.7571L84.1205 24.3829L79.2549 25.7317L83.3089 22.7638L78.1727 23.5723L82.9041 21.4129L77.9021 21.549L82.6336 19.6577L77.4974 19.1194L82.4972 18.1748L77.4974 17.094L82.6336 16.5536L77.9021 14.6644L82.9041 15.0686L78.1727 12.639L83.3089 13.5836L79.2549 10.6157L84.1205 11.9646L80.335 8.59031L85.0664 10.7498L81.6877 6.83512L86.1465 9.53494L83.3089 5.07994L87.0924 8.59031L85.0664 4.00125L88.5793 7.64569L87.0924 2.78644L90.0663 6.83512L89.2567 1.84181L91.5532 6.29475L91.419 1.4355L93.1744 6.02456L93.7155 1.03125L94.6614 6.02456Z" fill="#F89C1D"/>
<path d="M75.7522 64.2299H68.2596V62.5324C67.5553 62.9058 66.6054 63.3595 64.949 63.3203C60.8909 63.2358 57.537 59.8863 57.537 55.753C57.537 51.9931 60.8909 48.8086 64.949 48.8086C66.1076 48.8086 67.2249 48.9323 68.2596 49.2623V46.9461H55.8022V64.2278H48.4748V53.1089C47.6859 52.6551 46.1163 52.3251 45.3708 52.5747C46.2402 53.5234 46.9424 55.1363 46.9424 56.4584C46.9424 59.3933 44.6273 61.5445 41.9756 61.5445C39.3259 61.5445 37.2565 59.8883 36.7588 57.5763L36.6349 56.8317C36.1785 52.6551 39.3238 49.2644 43.3407 48.9344C45.0796 48.8106 46.6099 49.0189 48.4748 49.3489V46.9482H35.7242V64.2299H28.1902V46.9482H23.8843L26.2861 50.7514C24.3407 50.2977 22.1867 50.2977 20.1173 50.5452C17.1785 50.7514 14.3636 51.4939 12.8746 53.7297C11.6726 55.588 11.7986 58.0692 13.3702 59.1417C14.3636 59.8863 16.2698 60.3441 17.4284 59.68C16.7655 58.7313 16.2698 57.7784 16.2698 56.8296C16.2698 54.4743 18.587 52.3231 21.2367 52.3231C24.0102 52.3231 26.3295 54.4743 26.3295 56.8296C26.3295 58.3167 25.4187 59.68 24.0102 60.3441C24.6732 61.4187 25.5426 62.2024 26.5773 62.2024L23.1015 64.7682C21.6951 64.4794 19.8302 63.3203 19.0847 62.2024C15.1112 64.4341 8.24023 63.9803 5.38404 59.9708C3.68643 57.7804 3.76904 54.0597 5.30143 51.8693C7.90773 48.1053 13.3723 48.0248 17.1806 48.1053L16.3958 46.9482H3.76697V43.5183H13.3702L7.2448 36.9451L14.7374 33.4739L17.3437 38.3909L17.1785 33.8039L24.382 33.2243C23.8843 36.1593 23.5125 39.7542 25.4167 42.3199L23.6364 43.5183H28.2728C27.5273 42.6912 27.2795 41.4929 27.2795 40.3338C27.2795 35.4993 33.9852 32.4406 42.2234 32.4406C50.6247 32.4406 57.2478 35.5013 57.2478 40.3338C57.2478 41.4908 56.9587 42.6891 56.2979 43.5183H86.638V46.9482H75.7522V49.2644C76.7063 48.9344 77.8628 48.8106 79.0214 48.8106C83.1601 48.8106 86.4335 51.9951 86.5574 55.7551C86.6793 60.0574 83.2035 63.1574 79.0648 63.1574C77.9062 63.1574 76.7063 63.0336 75.7522 62.3695V64.2299ZM47.975 43.5183C48.3901 43.0645 49.0097 41.9054 49.0097 40.7071C49.0097 37.6876 46.9404 35.8293 42.3452 35.8293C37.7501 35.8293 35.5156 37.6876 35.5156 40.7071C35.5156 41.9899 36.0959 42.9799 36.8394 43.5183H47.975ZM68.2596 52.5726H67.8879C66.1076 52.5726 64.6992 53.8514 64.6992 56.0026C64.6992 58.0692 66.1076 59.3913 67.8879 59.3913H68.2596V52.5726ZM75.7522 59.3933H76.2478C77.8628 59.3933 79.3126 58.0713 79.3126 56.0046C79.3126 53.8534 77.8628 52.5747 76.2478 52.5747H75.7522V59.3933ZM186.233 46.9482H182.341C183.664 48.1053 184.288 49.6377 184.288 51.2898C184.288 54.5959 181.471 57.4092 178.202 57.5742C177.376 57.6154 176.795 57.5742 176.341 57.5742C177.54 60.7154 181.929 60.9629 183.999 59.8863L181.929 64.4774C176.341 66.0903 171.662 63.5658 170.543 59.1417C170.129 57.5721 169.717 56.4563 167.978 56.0005L169.717 52.321C171.829 51.991 172.367 53.4781 173.982 53.4781C175.637 53.4781 177.087 51.991 177.087 50.2936C177.087 48.8065 175.637 47.2328 173.982 46.9441H156.639V49.2603C157.714 48.9303 158.789 48.7653 159.988 48.7653C164.211 48.7653 167.481 51.9889 167.481 55.7489C167.481 59.8821 164.211 63.2316 159.988 63.2316C158.789 63.2316 157.712 62.8604 156.639 62.1983V64.2237H149.311V62.5263C148.73 62.8604 147.696 63.3946 145.917 63.3946C141.695 63.3946 138.55 59.8801 138.55 55.7468H136.479C134.575 57.8568 132.133 57.6918 130.641 57.568C131.841 60.7092 136.189 60.9567 138.385 59.8801L136.19 64.4712C130.022 66.0841 126.009 63.2729 124.929 59.1355C124.475 57.4422 123.729 56.4501 122.279 55.9943L124.103 52.3148C126.007 51.9848 126.833 53.4719 128.033 53.4719C129.898 53.4719 131.222 51.9848 131.222 50.2874C131.222 48.8003 129.898 47.2266 128.242 46.9379H121.784V64.2196H114.541V46.9379H112.513V64.2196H105.31V55.2889H101.625V59.0922C101.625 60.9093 101.21 61.7776 100.341 62.1921C97.1561 63.7638 93.4676 60.9526 91.8568 58.3084C89.9919 55.2889 90.1178 51.7744 95.0021 51.2794V46.4821C94.4218 45.7829 93.0566 46.8554 92.2677 47.2266L90.407 44.9146C92.2677 43.0934 95 41.8951 97.3606 42.3096C100.049 42.4334 101.706 44.2917 101.625 46.9379V51.9828H105.31V46.9379H103.655V43.5183H186.236V46.9482H186.233ZM138.382 51.001C138.382 51.7043 138.174 52.6139 138.009 52.9831H139.252C140.162 50.2977 143.016 48.7694 146.121 48.7694C147.199 48.7694 148.189 48.9344 149.31 49.2644V46.9482H136.723C137.758 48.1073 138.382 49.3489 138.382 51.001ZM149.31 52.5726H148.81C146.99 52.5726 145.664 53.8514 145.664 56.0026C145.664 58.0692 146.987 59.3913 148.81 59.3913H149.31V52.5726ZM156.637 59.3933H157.257C158.786 59.3933 160.401 58.0713 160.401 56.0046C160.401 53.8534 158.786 52.5747 157.257 52.5747H156.637V59.3933Z" fill="black"/>
</svg>
