<svg width="179" height="66" viewBox="0 0 179 66" fill="none" xmlns="http://www.w3.org/2000/svg">
<path d="M172.017 40.8458C172.807 40.1487 173.408 38.7111 173.502 37.5519C173.686 31.4263 167.978 29.0153 162.504 29.0153C156.519 29.0153 151.507 31.1953 151.6 37.5519C151.767 38.5997 152.126 40.0208 152.707 40.8004H139.901H138.095H129.277H127.559H110.018H107.933H81.9945V44.5603H87.8397C87.8397 46.5548 87.8397 49.0133 87.8397 49.5702C82.4565 50.0342 82.2255 53.9777 84.2653 57.3664C86.1216 60.3818 90.2507 63.5849 93.9632 61.776C94.7985 61.2192 95.4483 60.3838 95.4483 58.2966V53.9798H99.3917V64.1417H107.65V44.5603H107.931H110.015C111.814 44.5603 114.017 44.5603 116.049 44.5603C117.857 44.9295 119.483 46.6476 119.483 48.2254C119.483 50.4054 117.857 52.0307 116.049 52.0307C114.239 52.0307 113.635 50.4054 111.175 50.7313L109.133 54.8604C111.175 55.3719 111.639 56.5785 112.148 58.4327C113.264 63.3518 118.647 66.1815 125.004 64.4655L127.324 59.268C125.004 60.4272 119.946 60.0579 118.647 56.5764C119.064 56.5764 119.761 56.7621 120.735 56.5764C124.445 56.3909 127.601 53.0949 127.601 49.5227C127.601 47.6211 126.859 45.8577 125.374 44.5583H127.555H129.273H129.598V64.0468H137.765V44.5583H138.091H139.897H149.321L150.063 46.0433C147.79 46.3671 145.886 46.6929 144.262 47.5283C141.153 49.2917 139.064 51.4264 139.064 55.3245C139.064 61.1717 145.653 64.2345 151.824 64.2345C157.022 64.4202 163.053 62.2854 163.75 56.8569C164.031 53.8395 161.663 50.6385 158.322 49.4794L152.893 50.9169C154.562 51.7523 155.63 53.5157 155.908 55.3266C156.001 57.09 154.843 60.6169 152.01 60.6169C150.803 60.4767 149.921 59.9198 148.995 58.8534C147.369 56.3949 147.555 51.2882 150.666 49.6197C153.217 48.2274 157.022 48.5533 159.621 48.9699L157.579 44.5624H161.572H163.75H163.845V64.0509H172.06V44.5624H175.261L175.308 40.8499H172.017V40.8458ZM99.3938 50.358C98.1398 50.358 96.5619 50.358 95.4503 50.358V44.5583H99.1607H99.3938V50.358ZM163.756 40.8107V40.7983H163.711H161.044C160.663 40.2332 159.953 38.9709 159.953 37.2261C160.093 30.8694 164.967 30.822 165.01 37.3189C165.01 39.0823 164.307 40.4415 163.756 40.8107Z" fill="black"/>
<path d="M50.5539 40.8003H40.2972C40.0084 40.8003 39.6639 40.8003 39.2782 40.8003C38.6657 40.8003 37.9397 40.8003 37.1188 40.8003C37.8489 39.7527 37.9872 38.9111 38.115 37.8303C38.2552 32.2163 30.228 28.875 20.8993 28.875C11.5273 28.875 3.50007 32.076 3.50007 37.6902C3.50007 38.8513 3.68363 40.1033 4.47356 40.8003H2.0625V41.1717V44.5603H4.47562V64.0489H12.6411V44.5603H12.9669H16.4917H28.0933L28.8832 45.9051C26.7012 45.9051 23.9167 45.9051 21.3654 46.5073C17.0982 47.5282 13.7548 50.8221 14.2209 55.5081C14.3592 56.9002 14.8707 58.2924 15.6585 59.3134C18.7687 63.8138 26.5629 64.3253 31.1107 61.8647C31.9007 62.9331 33.9405 64.3232 35.6112 64.6017L39.4618 61.8647C38.2573 61.8647 37.2364 61.0294 36.6795 59.73C38.1171 58.8472 39.0906 57.3623 39.0906 55.7844C39.0906 53.0929 36.6795 50.7272 33.3837 50.7272C30.5539 50.7272 27.9077 53.0929 27.9077 55.7844C27.9077 56.8054 28.3717 57.8263 29.1617 58.8473C25.2182 60.3323 21.1819 56.2032 23.9642 52.1648C27.0744 48.081 34.452 48.1284 39.0906 48.8709L36.399 44.5562H39.2782H40.2972H50.5539H55.0543H56.0278C57.42 44.5562 58.6266 45.4369 58.674 46.7362C58.674 49.5144 55.5823 49.7001 53.3197 49.4484L54.2664 47.5262C52.0389 46.3196 49.3494 46.2722 48.4667 46.2722C43.8261 46.2722 40.0702 49.6588 40.0702 54.1612C40.0702 59.2639 43.8282 62.5598 48.4667 62.7454C49.8589 62.7454 52.6432 62.5144 54.3592 61.0273L52.6887 58.2904C50.5539 58.7544 47.817 57.5004 47.817 54.5325C47.817 51.9729 49.7207 50.4549 51.6883 50.4777C51.2202 52.932 51.6058 55.5597 53.1547 57.7809C55.011 60.1467 58.212 61.6317 62.2957 61.6317C64.5687 61.6317 66.6105 61.0273 68.3739 60.0538V64.0902C71.0181 64.0902 73.9881 64.0902 76.6342 64.0902V44.5562H79.1402V40.7963H55.0543H50.5539V40.8003ZM14.2189 40.8003C13.4784 40.4766 12.7813 39.501 12.7813 37.8778C12.7813 34.6293 16.2154 32.4473 20.9014 32.3565C25.8204 32.2637 29.3473 34.7697 29.3473 38.0181C29.3473 39.237 28.8152 40.2827 28.3408 40.8024C24.4839 40.8024 20.2847 40.8024 16.4938 40.8024H14.2189V40.8003ZM60.1137 52.4019C60.2992 52.4019 66.2826 53.2372 66.7941 48.3182C66.9343 46.9734 66.4228 45.5338 65.2637 44.5603H68.3719V56.2052C64.5666 59.4062 59.5114 57.4118 60.1137 52.4019Z" fill="black"/>
<path fill-rule="evenodd" clip-rule="evenodd" d="M75.869 35.3802C75.9557 35.3802 75.9557 35.3802 76.0175 35.3802C76.5002 35.3802 76.9313 35.7638 76.9313 36.4073C76.9313 37.026 76.4981 37.4199 76.0175 37.4199C75.9557 37.4199 75.9557 37.4199 75.869 37.4199V35.3802ZM73.6313 37.4199C73.557 37.4199 73.5198 37.4199 73.5198 37.4199C72.9878 37.4199 72.567 37.0239 72.567 36.4073C72.567 35.7638 72.9878 35.3802 73.5198 35.3802C73.5198 35.3802 73.557 35.3802 73.6313 35.3802V37.4199ZM64.2489 32.6742C64.0262 32.5133 63.8529 32.2163 63.8529 31.8327C63.8529 30.9293 64.5191 30.3744 65.8928 30.3744C67.2642 30.3744 67.883 30.9313 67.883 31.8327C67.883 32.1915 67.6974 32.538 67.5737 32.6742H64.2489ZM75.869 38.3109C76.1537 38.5089 76.5125 38.5461 76.859 38.5461C78.0945 38.5461 79.134 37.6179 79.0968 36.333C79.0598 35.2089 78.0821 34.2561 76.8467 34.2561C76.5002 34.2561 76.1537 34.2932 75.8711 34.3922V33.6992H79.1216V32.6742H70.061C70.259 32.4267 70.3457 32.0678 70.3457 31.7233C70.3457 30.2754 68.3678 29.3618 65.8577 29.3618C63.3971 29.3618 61.3944 30.2775 61.3944 31.7233C61.3944 32.0698 61.4687 32.4267 61.6914 32.6742H60.3075L60.8396 32.3153C60.2703 31.5501 60.3818 30.4734 60.5303 29.5969L58.379 29.7702L58.7874 31.9647L57.6489 29.6732L55.4111 30.7107L57.2405 32.6762H54.3716V33.7013H58.1418L58.377 34.0478C57.2405 34.023 55.607 34.0478 54.8295 35.1718C54.3716 35.8277 54.3447 36.9394 54.8543 37.5953C55.7081 38.7936 57.7602 38.9318 58.9463 38.2635C59.169 38.5977 59.7237 38.9462 60.1445 39.0328L61.184 38.2635C60.8747 38.2635 60.6147 38.0284 60.4167 37.7067C60.8375 37.5087 61.1097 37.1003 61.1097 36.6568C61.1097 35.9514 60.4167 35.31 59.5898 35.31C58.7978 35.31 58.1067 35.9535 58.1067 36.6568C58.1067 36.9414 58.2552 37.2261 58.4532 37.5107C58.1067 37.7087 57.5396 37.5726 57.2426 37.3498C56.7723 37.0281 56.7353 36.2877 57.0941 35.7308C57.5396 35.0625 58.379 34.8418 59.2577 34.7799C59.8743 34.7057 60.5178 34.7057 61.0995 34.8418L60.3818 33.7054H61.6667V38.874H63.9168V33.7054H67.7243V34.4232C67.1673 34.3242 66.7095 34.2623 66.1917 34.2994C64.9935 34.3984 64.053 35.4111 64.1891 36.6609L64.2263 36.8837C64.3748 37.5767 64.9935 38.0697 65.7834 38.0697C66.5754 38.0697 67.2663 37.4262 67.2663 36.5496C67.2663 36.1536 67.056 35.673 66.7961 35.3884C67.0188 35.3142 67.4891 35.4132 67.7243 35.5493V38.8761H69.9125V33.7074H73.6313V34.4004C73.3218 34.3014 72.9878 34.2643 72.6432 34.2643C71.4326 34.2643 70.4303 35.2152 70.4303 36.3413C70.4303 37.5767 71.4305 38.5791 72.6432 38.6038C73.1382 38.6162 73.4229 38.4801 73.6313 38.3687V38.8782H75.869V38.3109Z" fill="black"/>
<path fill-rule="evenodd" clip-rule="evenodd" d="M88.6875 5.478L89.6487 1.03125L90.2489 5.478L91.571 1.39219L91.4513 5.71725L93.6149 1.75313L92.7734 6.19988L95.5371 2.59256L94.2151 6.91969L97.2201 3.67537L95.4175 7.76118L98.7815 4.6365L96.3786 8.60268L100.103 6.19988L97.2201 9.68344L101.547 7.76118L98.1812 10.7663L102.389 9.56382L98.7815 12.2079L103.228 11.3664L99.264 13.53L103.709 13.1691L99.3837 14.8521L103.95 15.3327L99.5033 16.2938L103.95 17.1353L99.3837 17.6158L103.709 19.2988L99.264 19.1772L103.228 21.1014L98.7815 20.3796L102.389 23.0237L98.1812 21.8213L101.547 24.8263L97.2201 22.7823L100.103 26.1484L96.3786 23.8652L98.7815 27.7097L95.4175 24.8263L97.2201 28.9121L94.2151 25.6678L95.5371 29.8732L92.7734 26.1484L93.6149 30.5951L91.4513 26.7486L91.571 31.1953L90.2489 27.1095L89.6487 31.5563L88.6875 27.1095L87.8461 31.5563L87.3655 27.1095L85.8042 31.1953L85.9238 26.7486L83.8799 30.5951L84.6017 26.1484L81.9576 29.8732L83.2797 25.6678L80.155 28.9121L81.9576 24.8263L78.5937 27.7097L81.1161 23.8652L77.1499 26.1484L80.155 22.7823L75.9495 24.8263L79.3135 21.8213L74.9864 23.0237L78.5937 20.3796L74.0252 21.1014L78.2327 19.1772L73.786 19.2988L77.9915 17.6158L73.425 17.1353L77.8718 16.2938L73.425 15.3327L77.9915 14.8521L73.786 13.1691L78.2327 13.53L74.0252 11.3664L78.5937 12.2079L74.9864 9.56382L79.3135 10.7663L75.9495 7.76118L80.155 9.68344L77.1499 6.19988L81.1161 8.60268L78.5937 4.6365L81.9576 7.76118L80.155 3.67537L83.2797 6.91969L81.9576 2.59256L84.6017 6.19988L83.8799 1.75313L85.9238 5.71725L85.8042 1.39219L87.3655 5.478L87.8461 1.03125L88.6875 5.478Z" fill="#F89C1D"/>
</svg>
