<svg width="191" height="66" viewBox="0 0 191 66" fill="none" xmlns="http://www.w3.org/2000/svg">
<path fill-rule="evenodd" clip-rule="evenodd" d="M94.5368 6.02457L95.6176 1.03125L96.292 6.02457L97.777 1.4355L97.6429 6.29475L100.073 1.84182L99.1279 6.83512L102.232 2.78644L100.747 7.64569L104.121 4.00125L102.096 8.59032L105.876 5.07994L103.177 9.53494L107.361 6.83512L104.121 10.7498L108.98 8.59032L105.202 11.9646L109.925 10.6157L105.876 13.5837L110.87 12.639L106.417 15.0687L111.41 14.6644L106.551 16.5537L111.68 17.094L106.685 18.1747L111.68 19.1194L106.551 19.6577L111.41 21.549L106.417 21.4129L110.87 23.5723L105.876 22.7638L109.925 25.7318L105.202 24.3829L108.98 27.7572L104.121 25.4637L107.361 29.2422L103.177 26.6784L105.876 30.9973L102.096 27.7572L104.121 32.3462L100.747 28.7018L102.232 33.4269L99.1279 29.2422L100.073 34.2375L97.6429 29.9166L97.777 34.9119L96.292 30.3229L95.6176 35.3162L94.5368 30.3229L93.5921 35.3162L93.0518 30.3229L91.2986 34.9119L91.4327 29.9166L89.1392 34.2375L89.9477 29.2422L86.9777 33.4269L88.4627 28.7018L84.9544 32.3462L86.9777 27.7572L83.1992 30.9973L86.0331 26.6784L81.5801 29.2422L84.9544 25.4637L80.2292 27.7572L84.0098 24.3829L79.1506 25.7318L83.1992 22.7638L78.0698 23.5723L82.795 21.4129L77.7996 21.549L82.5248 19.6577L77.3954 19.1194L82.3886 18.1747L77.3954 17.094L82.5248 16.5537L77.7996 14.6644L82.795 15.0687L78.0698 12.639L83.1992 13.5837L79.1506 10.6157L84.0098 11.9646L80.2292 8.59032L84.9544 10.7498L81.5801 6.83512L86.0331 9.53494L83.1992 5.07994L86.9777 8.59032L84.9544 4.00125L88.4627 7.64569L86.9777 2.78644L89.9477 6.83512L89.1392 1.84182L91.4327 6.29475L91.2986 1.4355L93.0518 6.02457L93.5921 1.03125L94.5368 6.02457Z" fill="#F89C1D"/>
<path d="M34.4169 40.6416H26.7589C26.928 40.2621 27.1383 39.2473 27.1383 39.0369C27.1383 35.5678 22.4874 34.8068 20.2413 34.8068C16.6444 34.8068 11.6572 35.7782 11.6572 40.5178C11.6572 41.8275 12.4142 42.6752 12.4142 42.801V63.7437H5.22431V42.8835C4.37663 41.7842 4.125 40.5983 4.125 39.5423C4.125 33.3238 12.0347 31.6326 19.2266 31.6326C24.387 31.6326 34.5015 32.8598 34.5015 39.7114C34.5015 39.8784 34.4169 40.3446 34.4169 40.6416ZM33.2764 63.1497C30.3559 64.3768 27.6478 64.4181 25.7008 64.4181C20.0331 64.4181 14.7015 62.4752 14.7015 57.3974C14.7015 55.6607 15.8008 53.3775 17.9149 52.701C16.1411 51.5997 15.2522 50.4591 15.2522 48.5946C15.2522 44.3644 20.8333 42.4174 25.7421 42.4174C28.7451 42.4174 32.6391 42.8814 33.6147 43.8158V47.6232C31.6656 46.1423 29.2978 46.1423 27.7716 46.1423C25.1955 46.1423 22.5287 46.6497 22.5287 48.8916C22.5287 51.0077 25.1955 51.1748 27.225 51.1748C27.4767 51.1748 29.7639 51.1748 31.1582 51.051V54.7305C30.1414 54.6893 28.3635 54.6027 27.0559 54.6027C24.5169 54.6027 22.1513 55.1946 22.1513 57.1828C22.1513 58.7503 23.925 59.8909 27.0147 59.8909C29.3391 59.8909 31.0737 59.5939 35.2626 58.0718C34.5861 59.7218 33.9921 61.4997 33.2764 63.1497ZM68.6421 63.7416V60.3591C67.2478 61.3305 64.7934 62.5577 61.5347 62.5577C58.3213 62.5577 55.572 61.8379 53.3259 59.8909C51.0861 61.9224 48.2934 62.6444 45.7957 62.6444C39.6639 62.6444 35.5987 58.0739 35.5987 52.3607C35.5987 46.4805 39.2391 42.3369 45.2038 42.3369C45.7132 42.3369 47.6603 42.5474 48.6358 42.7577V46.3547C48.0439 46.2722 47.8294 46.2309 47.5757 46.2309C44.7439 46.2309 42.8382 48.6833 42.8382 51.6883C42.8382 54.7759 45.0801 57.3582 48.4234 57.3582C49.2711 57.3582 50.8757 56.9353 51.3438 56.1289C51.3851 54.9471 51.5088 54.3098 51.7647 53.4662C52.5298 50.9273 55.1925 50.0383 57.1395 49.5743C57.9872 49.4052 58.9173 48.8544 58.9173 47.8377C58.9173 46.6517 57.9872 46.0185 56.2918 46.0185C55.3203 46.0185 53.7117 46.3155 52.9918 46.4826V42.8443C53.922 42.5886 57.3953 42.2937 58.2842 42.2937C62.0462 42.2937 66.1527 43.5229 66.1527 47.8356C66.1527 53.5054 58.8328 52.1112 58.8328 55.3658C58.8328 57.2715 60.9077 58.0738 62.4732 58.0738C64.119 58.0738 67.5057 57.3128 68.6462 55.9577V42.9289H75.7968V63.7437H68.6421V63.7416ZM105.324 63.7416V54.8563H102.405V57.0137C102.405 58.5359 101.644 59.5939 100.081 59.5939C96.9457 59.5939 92.6331 56.001 92.6331 53.1218C92.6331 52.5732 93.0126 51.5584 94.2831 51.5584H95.3412V47.4973C95.3412 46.9899 94.9617 46.5259 94.2398 46.5259C92.3794 46.5259 89.9683 49.4856 89.9683 52.998C89.9683 57.9459 92.2102 60.9943 96.9478 61.7554C96.9478 61.7554 95.8073 63.8303 95.3019 64.8863C95.0874 64.9275 94.7512 64.9688 94.4955 64.9688C88.1079 64.9688 83.2446 59.9363 83.2446 53.4621C83.2446 46.3959 88.5287 42.3349 94.6233 42.3349C97.7955 42.3349 102.409 44.1953 102.409 47.0312V51.5584H105.328V42.9289H112.478V63.7437H105.324V63.7416ZM114.715 63.7416V42.9289H121.909V63.7437H114.715V63.7416ZM155.034 64.5459C152.078 64.5459 147.675 63.9128 144.714 62.8959L146.704 59.004C148.432 59.8929 150.636 60.3158 152.58 60.3158C156.177 60.3158 157.954 59.2164 157.954 57.0158C157.954 55.7473 157.148 54.7326 155.88 54.7326C154.234 54.7326 149.238 55.4112 144.794 55.9185V54.4377H140.951C138.92 56.7208 136.377 57.1869 134.434 57.1869C133.421 57.1869 132.573 57.0632 131.981 56.9766C133.077 59.301 135.661 60.1899 138.031 60.1899C139.677 60.1899 140.78 60.0662 141.495 59.8517C140.951 60.951 140.104 62.4773 139.173 64.0819C138.581 64.2964 136.712 64.6738 135.191 64.6738C131.001 64.6738 126.942 62.6443 125.759 58.7937C125.338 57.4407 124.87 56.5104 123.22 56.2547C123.347 56.0031 124.236 53.5879 124.7 52.3215C127.75 52.3215 128.341 53.8849 130.201 53.8849C132.483 53.8849 134.729 52.3215 134.729 50.0363C134.729 47.2869 132.144 45.8061 130.03 45.8061C128.803 45.8061 127.24 46.2702 126.097 46.695C126.565 45.5091 127.027 44.1148 127.495 42.8031C128.976 42.4648 131.47 42.4215 133.035 42.4215C137.603 42.4215 142.131 45.5112 142.088 50.589V51.0531H144.837V52.2803L148.186 51.9833C146.747 51.3047 145.092 50.2054 145.092 47.9634C145.092 44.1973 150.212 42.4215 155.124 42.4215C157.241 42.4215 159.143 42.5907 162.021 43.2692V46.7383C160.073 46.0598 158.039 45.6803 155.925 45.6803C154.238 45.6803 152.46 46.4826 152.46 48.2604C152.46 49.7001 154.403 51.0552 155.588 51.1789L165.448 50.2941V53.7178L163.458 53.8869C163.925 54.1839 165.488 55.3678 165.488 57.6552C165.487 62.5164 160.326 64.5459 155.034 64.5459ZM178.054 57.2282C177.379 57.2282 176.152 57.0591 175.601 56.9724C176.359 58.7916 178.391 60.1859 181.182 60.1859C182.499 60.1859 183.388 60.1446 185.033 59.8888L182.664 64.0778C181.774 64.416 180.506 64.7109 178.688 64.7109C173.741 64.7109 171.241 62.2587 170.188 60.5674C169.085 58.8308 169.339 56.6342 166.796 56.2918C167.141 55.3204 167.857 53.5013 168.326 52.3587C170.311 52.0204 171.791 53.7983 173.785 53.7983C176.065 53.7983 178.311 52.3587 178.311 49.8651C178.311 47.3262 176.065 45.804 173.695 45.804C172.345 45.804 170.947 46.2268 169.678 46.6929C170.099 45.6349 170.608 44.1128 171.117 42.8423C172.557 42.6732 173.908 42.4194 175.388 42.4194C180.337 42.4194 185.627 44.6202 185.627 50.4591C185.625 56.001 180.72 57.2282 178.054 57.2282Z" fill="black"/>
</svg>
