<svg width="36" height="36" viewBox="0 0 36 36" fill="none" xmlns="http://www.w3.org/2000/svg">
<g clip-path="url(#clip0_11_315)">
<path d="M34.2267 32.9164L32.3212 30.145C32.0879 29.8025 31.7481 29.5466 31.3546 29.4167C30.9611 29.2868 30.5358 29.2903 30.1444 29.4265L26.817 24.9049C26.0927 23.9173 25.1522 23.1083 24.0674 22.5398C22.9826 21.9712 21.7822 21.6581 20.5579 21.6245H13.9374C13.7823 21.6254 13.6276 21.6407 13.4754 21.6704L13.0814 20.4474C12.9841 20.1424 12.8211 19.8624 12.6039 19.6272C12.3867 19.392 12.1205 19.2073 11.8242 19.0861C11.5279 18.9649 11.2085 18.9102 10.8888 18.9258C10.569 18.9414 10.2565 19.0269 9.97338 19.1763C9.93581 19.1083 9.89467 19.0422 9.85014 18.9785C9.62568 18.671 9.32663 18.4257 8.98117 18.2656C8.63572 18.1056 8.25521 18.0361 7.87549 18.0638C7.49577 18.0914 7.12934 18.2153 6.81069 18.4236C6.49205 18.632 6.23168 18.918 6.05412 19.2548L6.00935 19.194C5.80558 18.9197 5.54842 18.6894 5.25335 18.517C4.95827 18.3447 4.63138 18.2338 4.29233 18.191C3.98094 18.1483 3.66412 18.1699 3.3614 18.2544C3.05868 18.3389 2.77648 18.4845 2.5322 18.6823C2.06009 19.0681 1.75402 19.6203 1.6771 20.2251C1.60019 20.8299 1.7583 21.4412 2.11883 21.9329L7.52356 29.2829C7.90972 29.8074 8.40939 30.238 8.98527 30.5423C9.55899 30.8513 10.1959 31.0247 10.8471 31.0491L18.8757 31.3751C19.3623 31.3936 19.8383 31.5223 20.268 31.7514C20.6976 31.9806 21.0696 32.3043 21.3559 32.6981L23.157 35.1463C23.2 35.2049 23.2541 35.2544 23.3163 35.2921C23.3785 35.3297 23.4475 35.3547 23.5194 35.3657C23.5912 35.3766 23.6646 35.3733 23.7351 35.3558C23.8057 35.3384 23.8721 35.3072 23.9306 35.264L30.2981 30.5804C30.4715 30.4607 30.685 30.4137 30.8927 30.4494C31.1004 30.4852 31.2859 30.6008 31.4094 30.7717L33.3149 33.5437C33.572 33.9181 33.7099 34.3616 33.7106 34.8158C33.7106 34.9624 33.7688 35.1029 33.8724 35.2066C33.9761 35.3102 34.1166 35.3684 34.2632 35.3684C34.4098 35.3684 34.5503 35.3102 34.654 35.2066C34.7576 35.1029 34.8158 34.9624 34.8158 34.8158C34.8155 34.1378 34.6101 33.4757 34.2267 32.9164ZM10.7029 20.0672C10.9174 20.0123 11.1433 20.0226 11.352 20.0968C11.5606 20.1711 11.7423 20.3058 11.8739 20.4839C11.9421 20.5786 11.9952 20.6834 12.0314 20.7944L12.4591 22.1208C11.9595 22.4852 11.6096 23.0192 11.4749 23.6228L10.3729 20.2164C10.4741 20.1492 10.5856 20.0988 10.7029 20.0672ZM7.74296 19.199C7.96559 19.1413 8.20042 19.1516 8.41713 19.2286C8.63385 19.3056 8.8225 19.4459 8.95875 19.6312C9.03299 19.729 9.0905 19.8384 9.12896 19.955L10.5288 24.2876L10.1005 24.2827C9.99162 24.2814 9.88449 24.2552 9.78734 24.206C9.6902 24.1569 9.60562 24.0861 9.54012 23.9992L6.89246 20.3921C6.87186 20.1251 6.94575 19.8593 7.10121 19.6412C7.25666 19.4231 7.48381 19.2666 7.74296 19.199ZM23.7201 34.0421L22.2479 32.041C21.8639 31.5129 21.3651 31.0788 20.789 30.7714C20.2129 30.464 19.5746 30.2914 18.9221 30.2665L10.8907 29.9405C10.4064 29.9226 9.9326 29.7945 9.5053 29.5658C9.07565 29.3387 8.70276 29.0175 8.41441 28.6263L3.01022 21.2763C2.91094 21.1414 2.83932 20.9881 2.79949 20.8254C2.75965 20.6626 2.75239 20.4936 2.77812 20.328C2.82405 20.0175 2.98476 19.7355 3.22851 19.5378C3.35763 19.435 3.50641 19.3597 3.66569 19.3166C3.82497 19.2734 3.99139 19.2633 4.15472 19.2869C4.34479 19.3105 4.52814 19.3722 4.69375 19.4684C4.85937 19.5646 5.00385 19.6933 5.11851 19.8467L5.8922 20.9017L5.89717 20.9088L8.6537 24.6618C8.82199 24.8858 9.03966 25.0681 9.28981 25.1944C9.53995 25.3207 9.81584 25.3877 10.0961 25.3901L11.749 25.4089C11.7943 25.4902 11.8443 25.5688 11.8987 25.6443C12.1261 25.9563 12.4223 26.2116 12.7644 26.3904C13.1065 26.5693 13.4852 26.6669 13.8711 26.6755L18.8061 26.8082C18.9522 26.8103 19.0934 26.7553 19.1995 26.6548C19.3056 26.5544 19.3683 26.4165 19.3742 26.2705C19.3762 26.1979 19.3638 26.1256 19.3379 26.0578C19.3119 25.99 19.2729 25.928 19.2229 25.8753C19.173 25.8226 19.1132 25.7802 19.0469 25.7506C18.9806 25.7211 18.9091 25.7048 18.8365 25.7029L13.8998 25.5703C13.6827 25.5652 13.4696 25.5102 13.2771 25.4095C13.0847 25.3088 12.9181 25.165 12.7901 24.9895C12.7175 24.8883 12.6579 24.7784 12.6127 24.6623C12.5423 24.4835 12.5091 24.2923 12.5149 24.1003C12.528 23.8343 12.6148 23.5771 12.7656 23.3575C12.9163 23.138 13.1252 22.9646 13.3687 22.8569C13.5455 22.7709 13.7398 22.7274 13.9363 22.7298H20.5414C21.5952 22.7605 22.6282 23.0316 23.5614 23.5222C24.4946 24.0129 25.3034 24.7101 25.9262 25.5609L29.2016 30.0118L23.7201 34.0421Z" fill="#8B8B8B"/>
<path d="M4.97365 14.3684H7.18418C7.33074 14.3684 7.47131 14.3102 7.57495 14.2065C7.67859 14.1029 7.73681 13.9623 7.73681 13.8158V11.0526C7.7361 10.7106 7.62945 10.3773 7.43153 10.0984C7.2336 9.81953 6.95413 9.60883 6.63155 9.4953V6.95319L9.3947 8.26901V14.921C9.39386 15.0419 9.43269 15.1598 9.50523 15.2565C9.60139 15.3781 11.8523 18.2368 17.6842 18.2368C23.5161 18.2368 25.767 15.3781 25.8631 15.2565C25.9357 15.1598 25.9745 15.0419 25.9736 14.921V8.27011L29.5271 6.5763C29.6214 6.53141 29.7011 6.46071 29.7569 6.37239C29.8127 6.28406 29.8423 6.18174 29.8423 6.07727C29.8423 5.9728 29.8127 5.87048 29.7569 5.78215C29.7011 5.69383 29.6214 5.62313 29.5271 5.57824L17.9218 0.0519298C17.8476 0.0165757 17.7664 -0.00177002 17.6842 -0.00177002C17.602 -0.00177002 17.5208 0.0165757 17.4465 0.0519298L5.84128 5.57824C5.74673 5.62328 5.66692 5.69425 5.61115 5.78289C5.55538 5.87154 5.52595 5.9742 5.52628 6.07893V9.4964C5.20415 9.61029 4.92507 9.82093 4.72723 10.0995C4.52938 10.3781 4.42244 10.7109 4.42102 11.0526V13.8158C4.42102 13.9623 4.47924 14.1029 4.58288 14.2065C4.68652 14.3102 4.82709 14.3684 4.97365 14.3684ZM24.8684 11.429C24.4434 11.9954 22.386 14.3684 17.6842 14.3684C17.1532 14.369 16.6228 14.3364 16.0959 14.2706C15.9504 14.2521 15.8036 14.2922 15.6877 14.382C15.5718 14.4718 15.4963 14.604 15.4778 14.7494C15.4593 14.8949 15.4994 15.0418 15.5892 15.1577C15.679 15.2736 15.8112 15.3491 15.9567 15.3676C16.5297 15.4391 17.1067 15.4746 17.6842 15.4737C21.4277 15.4737 23.6924 14.0777 24.8684 13.0299V14.7116C24.371 15.2294 22.239 17.1316 17.6842 17.1316C13.1294 17.1316 10.9929 15.2261 10.5 14.7121V13.0233C10.9252 13.4014 11.3869 13.7364 11.8782 14.0236C12.0046 14.0977 12.1552 14.1186 12.2969 14.0817C12.4387 14.0448 12.56 13.9531 12.6342 13.8268C12.671 13.7642 12.6951 13.695 12.7051 13.6231C12.7151 13.5512 12.7109 13.478 12.6926 13.4078C12.6743 13.3375 12.6424 13.2716 12.5986 13.2136C12.5549 13.1557 12.5001 13.107 12.4375 13.0703C11.6934 12.6496 11.036 12.0915 10.5 11.4256V8.79622L17.4465 12.1026C17.5207 12.1383 17.6019 12.1568 17.6842 12.1568C17.7664 12.1568 17.8477 12.1383 17.9218 12.1026L24.8684 8.79622V11.429ZM17.6842 1.16438L28.0035 6.07893L25.185 7.42017L17.6842 10.9935L10.1684 7.41409L10.1573 7.40911L7.36489 6.07893L17.6842 1.16438ZM5.52628 11.0526C5.52628 10.906 5.58451 10.7655 5.68815 10.6618C5.79178 10.5582 5.93235 10.5 6.07891 10.5C6.1527 10.4998 6.22573 10.5148 6.2935 10.544C6.36127 10.5732 6.42234 10.6159 6.47294 10.6696C6.52375 10.7195 6.56399 10.7792 6.59124 10.845C6.61849 10.9108 6.6322 10.9814 6.63155 11.0526V13.2631H5.52628V11.0526Z" fill="#8B8B8B"/>
<path d="M14.059 14.9211C14.3642 14.9211 14.6116 14.6736 14.6116 14.3684C14.6116 14.0632 14.3642 13.8158 14.059 13.8158C13.7538 13.8158 13.5063 14.0632 13.5063 14.3684C13.5063 14.6736 13.7538 14.9211 14.059 14.9211Z" fill="#8B8B8B"/>
</g>
<defs>
<clipPath id="clip0_11_315">
<rect width="35.3684" height="35.3684" fill="white"/>
</clipPath>
</defs>
</svg>
