<svg width="27" height="27" viewBox="0 0 27 27" fill="none" xmlns="http://www.w3.org/2000/svg">
<path d="M13.46 15.7033V13.46M13.46 15.7033V17.9467M13.46 15.7033H20.19C21.429 15.7033 22.4334 14.699 22.4334 13.46M13.46 15.7033H6.73003C5.49107 15.7033 4.48669 14.699 4.48669 13.46M22.4334 13.46V20.19C22.4334 21.429 21.429 22.4333 20.19 22.4333H6.73003C5.49107 22.4333 4.48669 21.429 4.48669 20.19V13.46M22.4334 13.46V8.97332C22.4334 7.73437 21.429 6.72999 20.19 6.72999H6.73003C5.49107 6.72999 4.48669 7.73437 4.48669 8.97332V13.46M16.825 6.72999V5.60832C16.825 4.36936 15.8207 3.36499 14.5817 3.36499H12.3384C11.0994 3.36499 10.095 4.36936 10.095 5.60832V6.72999" stroke="#001A72" stroke-width="1.5" stroke-linecap="round" stroke-linejoin="round"/>
</svg>
