<svg width="26" height="26" viewBox="0 0 26 26" fill="none" xmlns="http://www.w3.org/2000/svg">
<path d="M19.5 20.2673C19.5 18.5126 18.2306 16.25 16.25 16.25H9.75C7.76936 16.25 6.5 18.5126 6.5 20.2673M3.25 13C3.25 7.61522 7.61522 3.25 13 3.25C18.3848 3.25 22.75 7.61522 22.75 13C22.75 18.3848 18.3848 22.75 13 22.75C7.61522 22.75 3.25 18.3848 3.25 13ZM16.25 9.75C16.25 11.5449 14.7949 13 13 13C11.2051 13 9.75 11.5449 9.75 9.75C9.75 7.95507 11.2051 6.5 13 6.5C14.7949 6.5 16.25 7.95507 16.25 9.75Z" stroke="#001A72" stroke-width="1.5"/>
</svg>
